<svg width="360" height="158" viewBox="0 0 360 158" fill="none" xmlns="http://www.w3.org/2000/svg">
<g clip-path="url(#clip0_1889_10152)">
<path opacity="0.2" d="M2.00055 84.592C2.00055 84.592 105.854 134.953 219.561 115.321C333.268 95.689 377.936 157.307 377.936 157.307L377.936 -245.461L2.00055 -245.461L2.00055 84.592Z" fill="url(#paint0_linear_1889_10152)"/>
<path opacity="0.4" d="M0.000549316 124.592C0.000549316 124.592 62.0725 137.433 159.561 95.321C257.049 53.209 377.936 117.307 377.936 117.307L377.936 -245.461L2.00055 -245.461L0.000549316 124.592Z" fill="url(#paint1_linear_1889_10152)"/>
<path opacity="0.7" d="M452.535 105.646C452.535 105.646 386.598 152.33 254.029 114.454C121.46 76.578 0.0291443 90.054 0.0291443 90.054L1.02914 -246L377 -246L452.535 105.646Z" fill="url(#paint2_linear_1889_10152)"/>
<path opacity="0.7" d="M377 111.821C377 111.821 318.743 154.937 186.515 117C54.287 79.063 0 80.627 0 80.627L1 -246L378 -246L377 111.821Z" fill="url(#paint3_linear_1889_10152)"/>
</g>
<defs>
<linearGradient id="paint0_linear_1889_10152" x1="189.968" y1="157.307" x2="189.968" y2="-245.461" gradientUnits="userSpaceOnUse">
<stop stop-color="#6C18A4"/>
<stop offset="1" stop-color="#3827B4"/>
</linearGradient>
<linearGradient id="paint1_linear_1889_10152" x1="188.968" y1="126.435" x2="188.968" y2="-245.461" gradientUnits="userSpaceOnUse">
<stop stop-color="#6C18A4"/>
<stop offset="1" stop-color="#3827B4"/>
</linearGradient>
<linearGradient id="paint2_linear_1889_10152" x1="0.0291443" y1="-29.4676" x2="372.894" y2="-29.4676" gradientUnits="userSpaceOnUse">
<stop stop-color="#3827B4"/>
<stop offset="1" stop-color="#6C18A4"/>
</linearGradient>
<linearGradient id="paint3_linear_1889_10152" x1="0" y1="-11.637" x2="378" y2="-11.637" gradientUnits="userSpaceOnUse">
<stop stop-color="#3827B4"/>
<stop offset="1" stop-color="#6C18A4"/>
</linearGradient>
<clipPath id="clip0_1889_10152">
<rect width="452.535" height="403.307" fill="white" transform="translate(0 -246)"/>
</clipPath>
</defs>
</svg>
