<svg width="40" height="40" viewBox="0 0 40 40" fill="none" xmlns="http://www.w3.org/2000/svg">
<path d="M0 20C0 31.0457 8.95431 40 20 40C31.0457 40 40 31.0457 40 20C40 8.95431 31.0457 0 20 0C8.95431 0 0 8.95431 0 20Z" fill="black"/>
<path d="M25.7979 20.6254C25.8279 23.652 28.6379 24.6592 28.6691 24.672C28.6453 24.7431 28.2201 26.1074 27.1886 27.5166C26.297 28.735 25.3716 29.9489 23.9138 29.974C22.4814 29.9987 22.0208 29.1799 20.3831 29.1799C18.7459 29.1799 18.2342 29.9489 16.8782 29.9987C15.4711 30.0485 14.3995 28.6812 13.5005 27.4673C11.6634 24.9842 10.2595 20.4508 12.1446 17.3906C13.0811 15.8709 14.7546 14.9086 16.5712 14.8839C17.9529 14.8593 19.2572 15.753 20.1019 15.753C20.946 15.753 22.5309 14.6782 24.1971 14.8361C24.8946 14.8632 26.8526 15.0995 28.1098 16.8199C28.0085 16.8786 25.7736 18.095 25.7979 20.6254V20.6254ZM23.1058 13.1933C23.8529 12.3479 24.3557 11.171 24.2185 10C23.1417 10.0405 21.8395 10.6709 21.0672 11.5158C20.3749 12.264 19.7687 13.4616 19.9323 14.6095C21.1326 14.6963 22.3587 14.0392 23.1058 13.1933" fill="white"/>
</svg>
